# 3ds Max Wavefront OBJ Exporter v0.99 - (c)2007 guruware
# File Created: 13.01.2025 23:20:55

mtllib Warning.mtl

#
# object Prism001
#

v  30.0000 0.0000 -17.3205
v  0.0000 0.0000 -0.0000
v  60.0000 0.0000 -0.0000
v  30.0000 0.0000 -51.9615
v  0.0000 -10.8403 -0.0000
v  60.0000 -10.8403 -0.0000
v  30.0000 -10.8403 -51.9615
v  30.0000 -10.8403 -17.3205
# 8 vertices

vn 0.0000 1.0000 -0.0000
vn -0.7206 0.5547 0.4160
vn 0.7206 0.5547 0.4160
vn -0.0000 0.5547 -0.8321
vn -0.7206 -0.5547 0.4160
vn 0.7206 -0.5547 0.4160
vn -0.0000 -0.5547 -0.8321
vn 0.0000 -1.0000 -0.0000
# 8 vertex normals

vt 0.8249 0.2494 0.0000
vt 0.6624 0.1415 0.0000
vt 0.9996 0.1625 0.0000
vt 0.8128 0.4441 0.0000
vt 0.0143 0.2963 0.0000
vt 0.0000 0.2369 0.0000
vt 0.3286 0.1580 0.0000
vt 0.3428 0.2173 0.0000
vt 0.6572 0.0790 0.0000
vt 0.6714 0.1383 0.0000
vt 0.9857 0.0000 0.0000
vt 1.0000 0.0594 0.0000
vt 0.5236 0.5112 0.0000
vt 0.5298 0.3162 0.0000
vt 0.7019 0.2241 0.0000
vt 0.3641 0.2132 0.0000
# 16 texture coords

o Prism001
g Prism001
usemtl wire_115169045
s 1
f 1/1/1 2/2/2 3/3/3 
f 1/1/1 3/3/3 4/4/4 
f 1/1/1 4/4/4 2/2/2 
s 2
f 2/5/2 5/6/5 6/7/6 3/8/3 
s 4
f 3/8/3 6/7/6 7/9/7 4/10/4 
s 8
f 4/10/4 7/9/7 5/11/5 2/12/2 
s 1
f 5/13/5 8/14/8 6/15/6 
f 6/15/6 8/14/8 7/16/7 
f 7/16/7 8/14/8 5/13/5 
# 3 polygons - 6 triangles

